<?xml version="1.0" encoding="UTF-8"?>
<!DOCTYPE svg PUBLIC "-//W3C//DTD SVG 1.1//EN" "http://www.w3.org/Graphics/SVG/1.1/DTD/svg11.dtd">
<!-- Creator: CorelDRAW 2020 (64-Bit) -->
<svg xmlns="http://www.w3.org/2000/svg" xml:space="preserve" width="8.73611in" height="8.73611in" version="1.1" style="shape-rendering:geometricPrecision; text-rendering:geometricPrecision; image-rendering:optimizeQuality; fill-rule:evenodd; clip-rule:evenodd"
viewBox="0 0 3627.63 3627.63"
 xmlns:xlink="http://www.w3.org/1999/xlink"
 xmlns:xodm="http://www.corel.com/coreldraw/odm/2003">
 <defs>
  <style type="text/css">
   <![CDATA[
    .str2 {stroke:#605F54;stroke-width:2.88;stroke-miterlimit:2.61313}
    .str1 {stroke:#FFF212;stroke-width:2.88;stroke-miterlimit:2.61313}
    .str0 {stroke:#00A859;stroke-width:2.88;stroke-miterlimit:2.61313}
    .fil2 {fill:#605F54}
    .fil1 {fill:#FFF212}
    .fil0 {fill:#00A859}
   ]]>
  </style>
 </defs>
 <g id="Layer_x0020_1">
  <metadata id="CorelCorpID_0Corel-Layer"/>
  <circle class="fil0 str0" cx="1813.81" cy="1813.81" r="1812.37"/>
  <path class="fil1 str1" d="M1767.19 2708.28c7.72,-24.71 12.3,-65.2 8.01,-93.56 -5.57,-36.84 -4.63,-65.4 -4.1,-103.49 -15.47,7.72 -50.35,49.43 -63.56,61.91 -67.15,63.46 -142.14,116.49 -231.07,155.63 -121.6,53.51 -274.01,92.11 -427.83,89.15l9.84 -4.5c74.81,-25.27 208.78,-18.32 407.2,-118.87 86.92,-44.05 269.6,-164.65 304.55,-238.98 -332.74,45.78 -600.38,84.58 -929.4,-50.73 -21.23,-8.73 -37.89,-16.29 -59.18,-27.83 -64.4,-34.9 -46.57,-20.87 -113.61,-65.79 -14.74,-9.88 -36.66,-30.08 -51.65,-33.62 14.53,1.13 82.13,44.97 108.8,57.55 44.27,20.89 80.51,37.43 124.85,54.25 182.62,69.28 424.93,88.08 621.75,69.08 63.06,-6.09 262,-24.92 301.07,-51.39l0.74 -37.55c-91.12,-38.66 -166.87,-54.05 -293.93,-113.56l-167.88 -92.14c-57.14,-38.07 -24.72,-31.08 -117.38,-19.39 -289.28,36.5 -469.53,-76.19 -591.31,-220.53 64.64,20.26 226.07,218.09 574.87,183.59 17.27,-1.71 28.57,-2.36 40.8,-11.86 -10.23,-11.69 -96.33,-86.12 -136.12,-134.93 -121.33,-148.85 -230.47,-382.84 -240.92,-577.1l11.71 21.89c13.97,38.02 23.54,86.78 49.39,152.52 47.97,122.01 105.65,236.89 189.08,335.48 12.79,15.12 16.3,17.56 26.6,31.23l185.67 166.16c43.2,32.06 93.47,65.26 144.18,92.26 94.97,50.58 224.07,117.87 324.7,149.65l10.98 -502.85c-86.24,-43.66 -172.58,-79.78 -249.61,-136.63l-56.36 -41.62c-38.97,-29.51 -130.76,-106.32 -147.49,-146.1 -90.73,-1.34 -171.96,-24.64 -239.58,-67.05 -49.29,-30.91 -132.91,-103.71 -156.28,-151.27 24.18,12.81 49.82,41.89 73.83,61.07 61.9,49.44 206.18,142.57 284.03,118.64 -5.35,-15.94 -152.94,-235.77 -155.17,-386.85 19.16,29.75 27.67,84.36 43.59,124.66 33.84,85.68 67.4,142.19 118.68,215.67 57.2,81.96 130.37,143.1 211.17,204.21 61.7,46.67 201.64,128.45 270.72,152.13l5.79 -371.48c-29.47,-19.43 -98.87,-42.92 -202.38,-114.53 -84.54,-58.48 -158.16,-149.9 -190.54,-253.51 -16.39,-52.44 -42.81,-174.02 -20.11,-220.82 15.87,48.51 1.86,157.7 78.66,283.59 50.09,82.1 103.62,129.49 182.39,181.14 32.84,21.53 116.07,75.06 153.7,86.5l17.55 -1193.84c-22.44,26.3 -46.04,66.26 -60.91,95.21l-32.94 -22.53c-4.77,23.12 -16.38,47.79 -25.04,68.91 -9.73,23.73 -17.71,55.08 -32.38,68.44 -2.88,-5.22 -6.46,-13 -10.5,-17.8l-16.75 -12.92c-19.08,33.41 -37.22,97.55 -51.5,127.99l-11.94 19.23c-13.7,-10.02 -20.45,-19.11 -35.65,-25.23l-62.17 145.28 -23.3 -27.8c-14.37,13.58 -67.36,115.19 -81.83,140.15l-29.28 -48.23c-15.4,15.03 -38.53,69.25 -49.75,91.04 -12.47,24.22 -32.25,68.76 -49.63,89.5 -0.57,0.68 -1.87,2.14 -2.91,3.11l-16.98 -30.96c-8.19,6.08 -1.91,0.33 -9.44,8.65l-103.94 156.7c-0.9,1 -2.3,2.33 -3.15,3.23 -0.87,0.92 -2.63,2.43 -3.37,3.17 -0.75,0.74 -2.27,2.15 -3.48,3.14l-31.33 -56.59 -91.74 189.93c-17.69,-16.73 -28.85,-35.98 -48.02,-52.9 -5.05,4.45 -2.36,0.62 -7.58,9.43 -2.56,4.32 -3.24,6.01 -5.66,11.55l-73.79 191.2c-22.62,-10.79 -37.81,-30.03 -57.24,-39.09l-51.58 197.7c-23.74,-10.91 -26.27,-19.05 -46.37,-30.94 -12.36,16.84 -44.17,203.69 -46.12,219.59l-53.06 -19.4 -0.5 173.02 -51.48 -23 23.22 173.28 -47.46 -12.99 43.65 170.04 -61.06 -11.72 77.53 149.58 -45.97 13.67c17.23,30.99 83.84,113.32 83.12,132.82l-50.14 3.64c18.29,36.19 82.94,79.89 108.58,115.7l-39.08 22.74 33.08 26.17c30.42,19.58 81.48,54.41 98.43,79.02l-38.87 27.81c5.07,3.64 4.17,3.33 10.88,7.31 6.58,3.9 13.03,6.73 19.06,9.79l115.23 57.24c-8.95,10.31 -19.3,17.57 -33.04,29.44 26.15,19.53 88.08,27.71 124.65,36.72l-13.42 36.84 160.33 28.08c0.08,16.74 -11.71,27.23 -17.42,45.94 258.46,47.94 481.04,-40.81 634.4,-231.85l58.8 -73.28 -2.61 89.62z"/>
  <path class="fil1 str1" d="M1858.64 2652.9l-0.46 -33.87c29.8,30.71 55.61,80.64 112.84,137.16 149.5,147.63 355.62,207.38 578.11,167.77 -4.89,-17.68 -17.64,-29.98 -17.88,-45.94l163.15 -28.81c-5.85,-14.62 -10.9,-18.47 -16.84,-32.63 16.42,-9.84 39.76,-13.96 60.92,-19.56l62.24 -18.72c0.82,-0.4 2.56,-1.27 3.72,-2.1 -13.47,-12.99 -22.15,-15.76 -34.49,-29.15 24.76,-10.58 49.81,-24.69 76.72,-38.26 32.08,-16.17 59.76,-27.39 74.99,-42.17 -10.17,-6.49 -9.32,-4.91 -20.55,-10.05l-23.53 -13.02c15.82,-24.02 68.09,-58.11 97.62,-77.26 13.47,-8.73 22.89,-13.23 32.39,-28.07l-39.69 -20.44 82.23 -84.18c13.77,-13.44 18.74,-16.75 27.55,-33.53l-50.73 -2.51c-1.18,-16.18 27.17,-49.05 37.54,-65.12 13.23,-20.49 30.29,-46 45.53,-62.13 -14.48,-13.2 -28.98,-9.34 -44.87,-18.94l78.79 -149.53 -61.98 12.41 42.61 -170.57 -47.11 12.65 24.81 -172.71c-21.28,6.09 -33.79,15.19 -53.41,21.98l-0.57 -172.76 -47.3 18.78c-21.33,-38.93 -31.89,-192.14 -52.21,-219.33 -19.47,11.79 -24.96,22.42 -48.21,31.69l-47.33 -198c-22.19,10.28 -37.24,25.98 -58.09,37.78 -8.83,-21.87 -71.6,-196.79 -91.03,-212.42 -14.63,22.25 -24.33,34.75 -43.71,53.4l-83.85 -176.82c-4.53,-6.66 -5.42,-7.28 -8.43,-10.35 -16.18,18.52 -17.64,32.54 -34.6,53.48l-109.01 -161.9c-14.31,-16.83 -0.93,-3.46 -13.56,-12.49l-13.58 32.41c-34.55,-40.29 -75.44,-156.8 -104.87,-184.42l-28.07 48.29c-17.51,-27.16 -67.3,-125.77 -82.72,-140.28l-24.91 29.16 -60.69 -146.85c-18.51,8.99 -17.64,14.83 -35.51,25.44l-7.86 -11.26c-0.62,-1.07 -1.59,-2.7 -2.23,-3.91l-50.31 -133.23 -19.04 15.15c-3.49,3.9 -8.31,12.19 -11.12,16.51l-61.7 -136.74c-18.38,12.82 -4.21,10.61 -28.68,22.09 -9.58,-18.41 -34.49,-63.89 -52.31,-76.02 -0.01,0.01 -7.37,-22.37 -5.54,62.9l5.66 519.06c3.9,197.59 1.92,396.55 10.57,591.95 32.51,-6.72 122.63,-65.76 152.18,-85.38 139.91,-92.88 213.83,-190.62 245.86,-359.21 6.07,-31.96 6.61,-79.61 14.84,-106.04 36.13,76.5 -24.89,287.55 -108.14,381.35 -10.03,11.3 -21.96,21.6 -31.83,31.45 -10.08,10.06 -19.66,21.47 -31.17,31.99 -20.01,18.29 -45.95,36.04 -73.03,53.71 -34.65,22.61 -127.29,79.4 -170.5,85.73l5.96 376.28c80.52,-27.68 248.39,-127.63 322.52,-188.23 42.7,-34.91 67.96,-66.01 88.65,-84.57 47.03,-42.17 114.03,-141.88 143.44,-197.21 63.19,-118.86 58.07,-130.26 94.95,-248.24 0.15,91.17 -62.02,232.45 -103.57,315.53 -17.27,34.53 -43.89,62.83 -56.52,98.71 78.84,-6.67 152.58,-32.16 208.53,-68.25l149.93 -116.83c-15.28,32.44 -43.58,61.26 -69.16,82.02 -41.53,33.71 -23.02,28.2 -86.7,68.97 -67.05,42.92 -151.67,65.28 -239.74,66.95 -11.29,27.58 -67.6,75.84 -90.2,99.52 -28.58,29.94 -74.5,62.59 -109.85,86.29 -37.64,25.24 -78.2,51.36 -121.3,74.52 -26.56,14.27 -112.29,48.68 -129.86,70.16l9.12 496.41c90.48,-25.83 248.97,-107.73 328.11,-151.32 99.1,-54.58 161.9,-104.88 244.2,-171.28 15.82,-12.76 16.43,-19.09 30.12,-33.24 32.03,-33.12 47.19,-41.01 83.74,-89.41 9.1,-12.05 16.94,-22.73 27.49,-35.81 30.76,-38.14 66.13,-99.21 93.74,-148.98 43.65,-78.72 110.33,-259.14 125.14,-348.73 11.21,158.46 -120.03,463.47 -239.88,603.77l-50.09 53.79c-4.87,4.55 -12.46,13.13 -19.76,20.53 -13.24,13.43 -21.92,24.52 -34.4,34.6 -7.39,5.97 -32.15,28.1 -37.33,31.64 99.08,34.1 264.2,7.31 354.17,-26.63 167.66,-63.25 236.16,-136 263.99,-147.43 -41.38,55.91 -144.06,140.42 -229.42,177.05 -105.34,45.21 -224.52,62.83 -355.72,44.54 -109.33,-15.24 -68.71,-14.42 -150.79,36.72 -148.32,92.42 -425.41,184.01 -433.65,190.14l-0.1 34.61c37.69,26.05 229.14,43.25 290.34,49.89 108.86,11.81 222.54,10.4 331.77,-0.51 327.08,-32.69 465.07,-153.49 519.07,-168.97 -250.29,170.28 -499.15,227.38 -821.53,208.41 -112.9,-6.64 -209.77,-25.99 -317.02,-40.36 18.04,36.73 104.57,109.9 138,134.97 115.61,86.7 218.83,134.28 359.47,176.85l210.58 43.98c19.86,6.87 5.7,1.13 14.11,6.58 -262.43,4.37 -503.99,-89.75 -685.25,-270.68l-37.58 -34.06c3.84,39.48 -2.53,115.98 4.65,139.71z"/>
  <path class="fil2 str2" d="M1806.61 173.91l-17.55 1193.84c-37.63,-11.45 -120.86,-64.97 -153.7,-86.5 -78.77,-51.65 -132.3,-99.03 -182.39,-181.14 -76.8,-125.89 -62.79,-235.08 -78.66,-283.59 -22.7,46.8 3.71,168.38 20.11,220.82 32.39,103.61 106.01,195.02 190.54,253.51 103.51,71.61 172.91,95.11 202.38,114.53l-5.79 371.48c-69.08,-23.68 -209.02,-105.47 -270.72,-152.13 -80.8,-61.11 -153.97,-122.25 -211.17,-204.21 -51.29,-73.49 -84.84,-129.99 -118.68,-215.67 -15.92,-40.3 -24.43,-94.91 -43.59,-124.66 2.23,151.08 149.83,370.92 155.17,386.85 -77.85,23.94 -222.13,-69.2 -284.03,-118.64 -24,-19.17 -49.64,-48.26 -73.83,-61.07 23.37,47.56 106.99,120.36 156.28,151.27 67.62,42.41 148.85,65.71 239.58,67.05 16.73,39.78 108.52,116.59 147.49,146.1l56.36 41.62c77.03,56.85 163.38,92.97 249.61,136.63l-10.98 502.85c-100.64,-31.79 -229.74,-99.08 -324.7,-149.65 -50.71,-27.01 -100.98,-60.2 -144.18,-92.26l-185.67 -166.16c-10.3,-13.67 -13.8,-16.11 -26.6,-31.23 -83.43,-98.59 -141.11,-213.48 -189.08,-335.48 -25.85,-65.74 -35.42,-114.5 -49.39,-152.52l-11.71 -21.89c10.45,194.26 119.58,428.25 240.92,577.1 39.79,48.81 125.89,123.24 136.12,134.93 -12.23,9.51 -23.53,10.15 -40.8,11.86 -348.8,34.5 -510.23,-163.33 -574.87,-183.59 121.79,144.33 302.04,257.03 591.31,220.53 92.67,-11.69 60.24,-18.68 117.38,19.39l167.88 92.14c127.06,59.51 202.81,74.9 293.93,113.56l-0.74 37.55c-39.07,26.47 -238.01,45.3 -301.07,51.39 -196.82,19 -439.13,0.2 -621.75,-69.08 -44.35,-16.83 -80.58,-33.37 -124.85,-54.25 -26.67,-12.58 -94.27,-56.42 -108.8,-57.55 14.99,3.54 36.91,23.74 51.65,33.62 67.05,44.92 49.21,30.89 113.61,65.79 21.29,11.54 37.95,19.1 59.18,27.83 329.02,135.3 596.66,96.51 929.4,50.73 -34.95,74.32 -217.62,194.93 -304.55,238.98 -198.42,100.54 -332.39,93.6 -407.2,118.87l-9.84 4.5c153.82,2.96 306.23,-35.64 427.83,-89.15 88.93,-39.13 163.92,-92.16 231.07,-155.63 13.21,-12.49 48.09,-54.2 63.56,-61.91 -0.53,38.09 -1.47,66.66 4.1,103.49 4.29,28.36 -0.29,68.85 -8.01,93.56l-27.58 755.99c81.94,-13.79 62.36,-16.45 146.03,0.23l-26.99 -811.59c-7.18,-23.73 -0.82,-100.22 -4.65,-139.71l37.58 34.06c181.26,180.93 422.82,275.05 685.25,270.68 -8.41,-5.44 5.75,0.29 -14.11,-6.58l-210.58 -43.98c-140.64,-42.56 -243.85,-90.15 -359.47,-176.85 -33.43,-25.07 -119.96,-98.24 -138,-134.97 107.26,14.36 204.13,33.71 317.02,40.36 322.38,18.98 571.24,-38.12 821.53,-208.41 -53.99,15.49 -191.99,136.29 -519.07,168.97 -109.23,10.92 -222.9,12.32 -331.77,0.51 -61.2,-6.64 -252.65,-23.84 -290.34,-49.89l0.1 -34.61c8.24,-6.14 285.34,-97.73 433.65,-190.14 82.08,-51.14 41.47,-51.96 150.79,-36.72 131.2,18.29 250.38,0.66 355.72,-44.54 85.36,-36.63 188.05,-121.14 229.42,-177.05 -27.82,11.43 -96.33,84.18 -263.99,147.43 -89.97,33.94 -255.09,60.74 -354.17,26.63 5.18,-3.54 29.94,-25.67 37.33,-31.64 12.48,-10.08 21.15,-21.17 34.4,-34.6 7.3,-7.41 14.89,-15.98 19.76,-20.53l50.09 -53.79c119.84,-140.3 251.09,-445.3 239.88,-603.77 -14.81,89.6 -81.49,270.02 -125.14,348.73 -27.6,49.77 -62.98,110.85 -93.74,148.98 -10.55,13.08 -18.39,23.76 -27.49,35.81 -36.56,48.4 -51.71,56.29 -83.74,89.41 -13.69,14.15 -14.3,20.48 -30.12,33.24 -82.3,66.4 -145.1,116.7 -244.2,171.28 -79.13,43.59 -237.63,125.49 -328.11,151.32l-9.12 -496.41c17.57,-21.48 103.3,-55.89 129.86,-70.16 43.1,-23.16 83.66,-49.28 121.3,-74.52 35.35,-23.7 81.28,-56.35 109.85,-86.29 22.6,-23.68 78.92,-71.94 90.2,-99.52 88.07,-1.68 172.68,-24.03 239.74,-66.95 63.69,-40.77 45.17,-35.26 86.7,-68.97 25.58,-20.76 53.87,-49.57 69.16,-82.02l-149.93 116.83c-55.95,36.09 -129.69,61.57 -208.53,68.25 12.62,-35.89 39.25,-64.18 56.52,-98.71 41.56,-83.08 103.72,-224.36 103.57,-315.53 -36.87,117.98 -31.75,129.38 -94.95,248.24 -29.42,55.33 -96.42,155.05 -143.44,197.21 -20.69,18.55 -45.96,49.66 -88.65,84.57 -74.12,60.6 -242,160.55 -322.52,188.23l-5.96 -376.28c43.21,-6.33 135.85,-63.11 170.5,-85.73 27.08,-17.67 53.01,-35.42 73.03,-53.71 11.51,-10.52 21.09,-21.92 31.17,-31.99 9.87,-9.86 21.8,-20.15 31.83,-31.45 83.25,-93.8 144.27,-304.85 108.14,-381.35 -8.23,26.43 -8.77,74.08 -14.84,106.04 -32.04,168.59 -105.95,266.33 -245.86,359.21 -29.55,19.62 -119.67,78.66 -152.18,85.38 -8.64,-195.4 -6.67,-394.37 -10.57,-591.95l-5.66 -519.06c-1.83,-85.27 5.53,-62.88 5.54,-62.9l-9.84 -29.87c-14.43,5.02 -4.28,-3.35 -10.92,10.78z"/>
 </g>
</svg>
